<?xml version="1.0" encoding="UTF-8" standalone="no"?>
<svg width="1193.8mm" height="346.428mm"
 viewBox="0 0 3384 982"
 xmlns="http://www.w3.org/2000/svg" xmlns:xlink="http://www.w3.org/1999/xlink"  version="1.2" baseProfile="tiny">
<title>/home/andrey/fta-kafka/2brokers1zk.svg</title>
<desc>Generated with Qt</desc>
<defs>
</defs>
<g fill="none" stroke="black" stroke-width="3" fill-rule="evenodd" stroke-linecap="square" stroke-linejoin="bevel" >

<g fill="none" stroke="#000000" stroke-opacity="1" stroke-width="3" stroke-linecap="square" stroke-linejoin="bevel" transform="matrix(1,0,0,1,0,0)"
font-family="Noto Sans" font-size="10" font-weight="400" font-style="normal" 
>
</g>

<g fill="none" stroke="#000000" stroke-opacity="1" stroke-width="3" stroke-linecap="square" stroke-linejoin="bevel" transform="matrix(1,0,0,1,1692,0)"
font-family="Noto Sans" font-size="10" font-weight="400" font-style="normal" 
>
<rect x="-72" y="0" width="144" height="72"/>
<text fill="#000000" fill-opacity="1" stroke="none" xml:space="preserve" x="-47" y="40" font-family="Noto Sans" font-size="10" font-weight="400" font-style="normal" 
 >Broker write failure</text>
<polyline fill="none" vector-effect="none" points="0,72 0,90 " />
<rect x="-45" y="90" width="90" height="18"/>
<text fill="#000000" fill-opacity="1" stroke="none" xml:space="preserve" x="-10" y="103" font-family="Noto Sans" font-size="10" font-weight="400" font-style="normal" 
 >ISR1</text>
<polyline fill="none" vector-effect="none" points="0,108 0,117 " />
</g>

<g fill="none" stroke="#000000" stroke-opacity="1" stroke-width="3" stroke-linecap="square" stroke-linejoin="bevel" transform="matrix(1,0,0,1,1692,0)"
font-family="Noto Sans" font-size="10" font-weight="400" font-style="normal" 
>
</g>

<g fill="none" stroke="#000000" stroke-opacity="1" stroke-width="3" stroke-linecap="square" stroke-linejoin="bevel" transform="matrix(1,0,0,1,1692,171)"
font-family="Noto Sans" font-size="10" font-weight="400" font-style="normal" 
>
<polyline fill="none" vector-effect="none" points="0,0 0,9 " />
</g>

<g fill="none" stroke="#000000" stroke-opacity="1" stroke-width="3" stroke-linecap="square" stroke-linejoin="bevel" transform="matrix(1,0,0,1,1692,171)"
font-family="Noto Sans" font-size="10" font-weight="400" font-style="normal" 
>
</g>

<g fill="none" stroke="#000000" stroke-opacity="1" stroke-width="3" stroke-linecap="square" stroke-linejoin="bevel" transform="matrix(1,0,0,1,1692,117)"
font-family="Noto Sans" font-size="10" font-weight="400" font-style="normal" 
>
<path vector-effect="none" fill-rule="evenodd" d="M0,54 L27,54 C27,24.1766 14.9117,0 0,0 C-14.9117,0 -27,24.1766 -27,54 L0,54"/>
</g>

<g fill="none" stroke="#000000" stroke-opacity="1" stroke-width="3" stroke-linecap="square" stroke-linejoin="bevel" transform="matrix(1,0,0,1,1692,117)"
font-family="Noto Sans" font-size="10" font-weight="400" font-style="normal" 
>
</g>

<g fill="none" stroke="#000000" stroke-opacity="1" stroke-width="3" stroke-linecap="square" stroke-linejoin="bevel" transform="matrix(1,0,0,1,1287,198)"
font-family="Noto Sans" font-size="10" font-weight="400" font-style="normal" 
>
<rect x="-72" y="0" width="144" height="72"/>
<text fill="#000000" fill-opacity="1" stroke="none" xml:space="preserve" x="-34" y="40" font-family="Noto Sans" font-size="10" font-weight="400" font-style="normal" 
 >Broker Failure</text>
<polyline fill="none" vector-effect="none" points="0,72 0,90 " />
<rect x="-45" y="90" width="90" height="18"/>
<text fill="#000000" fill-opacity="1" stroke="none" xml:space="preserve" x="-19" y="103" font-family="Noto Sans" font-size="10" font-weight="400" font-style="normal" 
 >Broker1</text>
<polyline fill="none" vector-effect="none" points="0,108 0,117 " />
</g>

<g fill="none" stroke="#000000" stroke-opacity="1" stroke-width="3" stroke-linecap="square" stroke-linejoin="bevel" transform="matrix(1,0,0,1,1287,198)"
font-family="Noto Sans" font-size="10" font-weight="400" font-style="normal" 
>
</g>

<g fill="none" stroke="#000000" stroke-opacity="1" stroke-width="3" stroke-linecap="square" stroke-linejoin="bevel" transform="matrix(1,0,0,1,1287,369)"
font-family="Noto Sans" font-size="10" font-weight="400" font-style="normal" 
>
<polyline fill="none" vector-effect="none" points="0,0 0,9 " />
</g>

<g fill="none" stroke="#000000" stroke-opacity="1" stroke-width="3" stroke-linecap="square" stroke-linejoin="bevel" transform="matrix(1,0,0,1,1287,369)"
font-family="Noto Sans" font-size="10" font-weight="400" font-style="normal" 
>
</g>

<g fill="none" stroke="#000000" stroke-opacity="1" stroke-width="3" stroke-linecap="square" stroke-linejoin="bevel" transform="matrix(1,0,0,1,1287,315)"
font-family="Noto Sans" font-size="10" font-weight="400" font-style="normal" 
>
<path vector-effect="none" fill-rule="evenodd" d="M27,54 C27,24.1766 14.9117,0 0,0 C-14.9117,0 -27,24.1766 -27,54 M27,54 C27,46.5442 14.9117,40.5 0,40.5 C-14.9117,40.5 -27,46.5442 -27,54 M0,40.5 L0,54"/>
</g>

<g fill="none" stroke="#000000" stroke-opacity="1" stroke-width="3" stroke-linecap="square" stroke-linejoin="bevel" transform="matrix(1,0,0,1,1287,315)"
font-family="Noto Sans" font-size="10" font-weight="400" font-style="normal" 
>
</g>

<g fill="none" stroke="#000000" stroke-opacity="1" stroke-width="3" stroke-linecap="square" stroke-linejoin="bevel" transform="matrix(1,0,0,1,720,396)"
font-family="Noto Sans" font-size="10" font-weight="400" font-style="normal" 
>
<rect x="-72" y="0" width="144" height="72"/>
<text fill="#000000" fill-opacity="1" stroke="none" xml:space="preserve" x="-22.5" y="40" font-family="Noto Sans" font-size="10" font-weight="400" font-style="normal" 
 >Disk Fails</text>
<polyline fill="none" vector-effect="none" points="0,72 0,90 " />
<rect x="-45" y="90" width="90" height="18"/>
<text fill="#000000" fill-opacity="1" stroke="none" xml:space="preserve" x="-10" y="103" font-family="Noto Sans" font-size="10" font-weight="400" font-style="normal" 
 >Disk</text>
<polyline fill="none" vector-effect="none" points="0,108 0,117 " />
</g>

<g fill="none" stroke="#000000" stroke-opacity="1" stroke-width="3" stroke-linecap="square" stroke-linejoin="bevel" transform="matrix(1,0,0,1,720,396)"
font-family="Noto Sans" font-size="10" font-weight="400" font-style="normal" 
>
</g>

<g fill="none" stroke="#000000" stroke-opacity="1" stroke-width="3" stroke-linecap="square" stroke-linejoin="bevel" transform="matrix(1,0,0,1,720,513)"
font-family="Noto Sans" font-size="10" font-weight="400" font-style="normal" 
>
<circle cx="0" cy="36" r="36"/>
</g>

<g fill="none" stroke="#000000" stroke-opacity="1" stroke-width="3" stroke-linecap="square" stroke-linejoin="bevel" transform="matrix(1,0,0,1,720,513)"
font-family="Noto Sans" font-size="10" font-weight="400" font-style="normal" 
>
</g>

<g fill="none" stroke="#000000" stroke-opacity="1" stroke-width="3" stroke-linecap="square" stroke-linejoin="bevel" transform="matrix(1,0,0,1,720,378)"
font-family="Noto Sans" font-size="10" font-weight="400" font-style="normal" 
>
<polyline fill="none" vector-effect="none" points="0,0 0,18 " />
</g>

<g fill="none" stroke="#000000" stroke-opacity="1" stroke-width="3" stroke-linecap="square" stroke-linejoin="bevel" transform="matrix(1,0,0,1,720,378)"
font-family="Noto Sans" font-size="10" font-weight="400" font-style="normal" 
>
</g>

<g fill="none" stroke="#000000" stroke-opacity="1" stroke-width="3" stroke-linecap="square" stroke-linejoin="bevel" transform="matrix(1,0,0,1,882,396)"
font-family="Noto Sans" font-size="10" font-weight="400" font-style="normal" 
>
<rect x="-72" y="0" width="144" height="72"/>
<text fill="#000000" fill-opacity="1" stroke="none" xml:space="preserve" x="-40.5" y="40" font-family="Noto Sans" font-size="10" font-weight="400" font-style="normal" 
 >Other HW failure</text>
<polyline fill="none" vector-effect="none" points="0,72 0,90 " />
<rect x="-45" y="90" width="90" height="18"/>
<text fill="#000000" fill-opacity="1" stroke="none" xml:space="preserve" x="-17" y="103" font-family="Noto Sans" font-size="10" font-weight="400" font-style="normal" 
 >System</text>
<polyline fill="none" vector-effect="none" points="0,108 0,117 " />
</g>

<g fill="none" stroke="#000000" stroke-opacity="1" stroke-width="3" stroke-linecap="square" stroke-linejoin="bevel" transform="matrix(1,0,0,1,882,396)"
font-family="Noto Sans" font-size="10" font-weight="400" font-style="normal" 
>
</g>

<g fill="none" stroke="#000000" stroke-opacity="1" stroke-width="3" stroke-linecap="square" stroke-linejoin="bevel" transform="matrix(1,0,0,1,882,513)"
font-family="Noto Sans" font-size="10" font-weight="400" font-style="normal" 
>
<circle cx="0" cy="36" r="36"/>
</g>

<g fill="none" stroke="#000000" stroke-opacity="1" stroke-width="3" stroke-linecap="square" stroke-linejoin="bevel" transform="matrix(1,0,0,1,882,513)"
font-family="Noto Sans" font-size="10" font-weight="400" font-style="normal" 
>
</g>

<g fill="none" stroke="#000000" stroke-opacity="1" stroke-width="3" stroke-linecap="square" stroke-linejoin="bevel" transform="matrix(1,0,0,1,882,378)"
font-family="Noto Sans" font-size="10" font-weight="400" font-style="normal" 
>
<polyline fill="none" vector-effect="none" points="0,0 0,18 " />
</g>

<g fill="none" stroke="#000000" stroke-opacity="1" stroke-width="3" stroke-linecap="square" stroke-linejoin="bevel" transform="matrix(1,0,0,1,882,378)"
font-family="Noto Sans" font-size="10" font-weight="400" font-style="normal" 
>
</g>

<g fill="none" stroke="#000000" stroke-opacity="1" stroke-width="3" stroke-linecap="square" stroke-linejoin="bevel" transform="matrix(1,0,0,1,1044,396)"
font-family="Noto Sans" font-size="10" font-weight="400" font-style="normal" 
>
<rect x="-72" y="0" width="144" height="72"/>
<text fill="#000000" fill-opacity="1" stroke="none" xml:space="preserve" x="-43" y="40" font-family="Noto Sans" font-size="10" font-weight="400" font-style="normal" 
 >Network partition</text>
<polyline fill="none" vector-effect="none" points="0,72 0,90 " />
<rect x="-45" y="90" width="90" height="18"/>
<text fill="#000000" fill-opacity="1" stroke="none" xml:space="preserve" x="-20.5" y="103" font-family="Noto Sans" font-size="10" font-weight="400" font-style="normal" 
 >Network</text>
<polyline fill="none" vector-effect="none" points="0,108 0,117 " />
</g>

<g fill="none" stroke="#000000" stroke-opacity="1" stroke-width="3" stroke-linecap="square" stroke-linejoin="bevel" transform="matrix(1,0,0,1,1044,396)"
font-family="Noto Sans" font-size="10" font-weight="400" font-style="normal" 
>
</g>

<g fill="none" stroke="#000000" stroke-opacity="1" stroke-width="3" stroke-linecap="square" stroke-linejoin="bevel" transform="matrix(1,0,0,1,1044,513)"
font-family="Noto Sans" font-size="10" font-weight="400" font-style="normal" 
>
<circle cx="0" cy="36" r="36"/>
</g>

<g fill="none" stroke="#000000" stroke-opacity="1" stroke-width="3" stroke-linecap="square" stroke-linejoin="bevel" transform="matrix(1,0,0,1,1044,513)"
font-family="Noto Sans" font-size="10" font-weight="400" font-style="normal" 
>
</g>

<g fill="none" stroke="#000000" stroke-opacity="1" stroke-width="3" stroke-linecap="square" stroke-linejoin="bevel" transform="matrix(1,0,0,1,1044,378)"
font-family="Noto Sans" font-size="10" font-weight="400" font-style="normal" 
>
<polyline fill="none" vector-effect="none" points="0,0 0,18 " />
</g>

<g fill="none" stroke="#000000" stroke-opacity="1" stroke-width="3" stroke-linecap="square" stroke-linejoin="bevel" transform="matrix(1,0,0,1,1044,378)"
font-family="Noto Sans" font-size="10" font-weight="400" font-style="normal" 
>
</g>

<g fill="none" stroke="#000000" stroke-opacity="1" stroke-width="3" stroke-linecap="square" stroke-linejoin="bevel" transform="matrix(1,0,0,1,1206,396)"
font-family="Noto Sans" font-size="10" font-weight="400" font-style="normal" 
>
<rect x="-72" y="0" width="144" height="72"/>
<text fill="#000000" fill-opacity="1" stroke="none" xml:space="preserve" x="-22.5" y="40" font-family="Noto Sans" font-size="10" font-weight="400" font-style="normal" 
 >OS Faults</text>
<polyline fill="none" vector-effect="none" points="0,72 0,90 " />
<rect x="-45" y="90" width="90" height="18"/>
<text fill="#000000" fill-opacity="1" stroke="none" xml:space="preserve" x="-6.5" y="103" font-family="Noto Sans" font-size="10" font-weight="400" font-style="normal" 
 >OS</text>
<polyline fill="none" vector-effect="none" points="0,108 0,117 " />
</g>

<g fill="none" stroke="#000000" stroke-opacity="1" stroke-width="3" stroke-linecap="square" stroke-linejoin="bevel" transform="matrix(1,0,0,1,1206,396)"
font-family="Noto Sans" font-size="10" font-weight="400" font-style="normal" 
>
</g>

<g fill="none" stroke="#000000" stroke-opacity="1" stroke-width="3" stroke-linecap="square" stroke-linejoin="bevel" transform="matrix(1,0,0,1,1206,513)"
font-family="Noto Sans" font-size="10" font-weight="400" font-style="normal" 
>
<circle cx="0" cy="36" r="36"/>
</g>

<g fill="none" stroke="#000000" stroke-opacity="1" stroke-width="3" stroke-linecap="square" stroke-linejoin="bevel" transform="matrix(1,0,0,1,1206,513)"
font-family="Noto Sans" font-size="10" font-weight="400" font-style="normal" 
>
</g>

<g fill="none" stroke="#000000" stroke-opacity="1" stroke-width="3" stroke-linecap="square" stroke-linejoin="bevel" transform="matrix(1,0,0,1,1206,378)"
font-family="Noto Sans" font-size="10" font-weight="400" font-style="normal" 
>
<polyline fill="none" vector-effect="none" points="0,0 0,18 " />
</g>

<g fill="none" stroke="#000000" stroke-opacity="1" stroke-width="3" stroke-linecap="square" stroke-linejoin="bevel" transform="matrix(1,0,0,1,1206,378)"
font-family="Noto Sans" font-size="10" font-weight="400" font-style="normal" 
>
</g>

<g fill="none" stroke="#000000" stroke-opacity="1" stroke-width="3" stroke-linecap="square" stroke-linejoin="bevel" transform="matrix(1,0,0,1,1611,396)"
font-family="Noto Sans" font-size="10" font-weight="400" font-style="normal" 
>
<rect x="-72" y="0" width="144" height="72"/>
<text fill="#000000" fill-opacity="1" stroke="none" xml:space="preserve" x="-42.5" y="40" font-family="Noto Sans" font-size="10" font-weight="400" font-style="normal" 
 >Zookeeper failure</text>
<polyline fill="none" vector-effect="none" points="0,72 0,90 " />
<rect x="-45" y="90" width="90" height="18"/>
<text fill="#000000" fill-opacity="1" stroke="none" xml:space="preserve" x="-9" y="103" font-family="Noto Sans" font-size="10" font-weight="400" font-style="normal" 
 >ZK1</text>
<polyline fill="none" vector-effect="none" points="0,108 0,117 " />
</g>

<g fill="none" stroke="#000000" stroke-opacity="1" stroke-width="3" stroke-linecap="square" stroke-linejoin="bevel" transform="matrix(1,0,0,1,1611,396)"
font-family="Noto Sans" font-size="10" font-weight="400" font-style="normal" 
>
</g>

<g fill="none" stroke="#000000" stroke-opacity="1" stroke-width="3" stroke-linecap="square" stroke-linejoin="bevel" transform="matrix(1,0,0,1,1611,567)"
font-family="Noto Sans" font-size="10" font-weight="400" font-style="normal" 
>
<polyline fill="none" vector-effect="none" points="0,0 0,9 " />
</g>

<g fill="none" stroke="#000000" stroke-opacity="1" stroke-width="3" stroke-linecap="square" stroke-linejoin="bevel" transform="matrix(1,0,0,1,1611,567)"
font-family="Noto Sans" font-size="10" font-weight="400" font-style="normal" 
>
</g>

<g fill="none" stroke="#000000" stroke-opacity="1" stroke-width="3" stroke-linecap="square" stroke-linejoin="bevel" transform="matrix(1,0,0,1,1611,513)"
font-family="Noto Sans" font-size="10" font-weight="400" font-style="normal" 
>
<path vector-effect="none" fill-rule="evenodd" d="M27,54 C27,24.1766 14.9117,0 0,0 C-14.9117,0 -27,24.1766 -27,54 M27,54 C27,46.5442 14.9117,40.5 0,40.5 C-14.9117,40.5 -27,46.5442 -27,54 M0,40.5 L0,54"/>
</g>

<g fill="none" stroke="#000000" stroke-opacity="1" stroke-width="3" stroke-linecap="square" stroke-linejoin="bevel" transform="matrix(1,0,0,1,1611,513)"
font-family="Noto Sans" font-size="10" font-weight="400" font-style="normal" 
>
</g>

<g fill="none" stroke="#000000" stroke-opacity="1" stroke-width="3" stroke-linecap="square" stroke-linejoin="bevel" transform="matrix(1,0,0,1,1611,513)"
font-family="Noto Sans" font-size="10" font-weight="400" font-style="normal" 
>
<path vector-effect="none" fill-rule="evenodd" d="M0,0 L45,0 L36,15.5885 L54,15.5885 L45,0"/>
</g>

<g fill="none" stroke="#000000" stroke-opacity="1" stroke-width="3" stroke-linecap="square" stroke-linejoin="bevel" transform="matrix(1,0,0,1,1611,513)"
font-family="Noto Sans" font-size="10" font-weight="400" font-style="normal" 
>
</g>

<g fill="none" stroke="#000000" stroke-opacity="1" stroke-width="3" stroke-linecap="square" stroke-linejoin="bevel" transform="matrix(1,0,0,1,1368,594)"
font-family="Noto Sans" font-size="10" font-weight="400" font-style="normal" 
>
<rect x="-72" y="0" width="144" height="72"/>
<text fill="#000000" fill-opacity="1" stroke="none" xml:space="preserve" x="-54" y="40" font-family="Noto Sans" font-size="10" font-weight="400" font-style="normal" 
 >Solid State Disk failure</text>
<polyline fill="none" vector-effect="none" points="0,72 0,90 " />
<rect x="-45" y="90" width="90" height="18"/>
<text fill="#000000" fill-opacity="1" stroke="none" xml:space="preserve" x="-8.5" y="103" font-family="Noto Sans" font-size="10" font-weight="400" font-style="normal" 
 >SSD</text>
<polyline fill="none" vector-effect="none" points="0,108 0,117 " />
</g>

<g fill="none" stroke="#000000" stroke-opacity="1" stroke-width="3" stroke-linecap="square" stroke-linejoin="bevel" transform="matrix(1,0,0,1,1368,594)"
font-family="Noto Sans" font-size="10" font-weight="400" font-style="normal" 
>
</g>

<g fill="none" stroke="#000000" stroke-opacity="1" stroke-width="3" stroke-linecap="square" stroke-linejoin="bevel" transform="matrix(1,0,0,1,1368,711)"
font-family="Noto Sans" font-size="10" font-weight="400" font-style="normal" 
>
<circle cx="0" cy="36" r="36"/>
</g>

<g fill="none" stroke="#000000" stroke-opacity="1" stroke-width="3" stroke-linecap="square" stroke-linejoin="bevel" transform="matrix(1,0,0,1,1368,711)"
font-family="Noto Sans" font-size="10" font-weight="400" font-style="normal" 
>
</g>

<g fill="none" stroke="#000000" stroke-opacity="1" stroke-width="3" stroke-linecap="square" stroke-linejoin="bevel" transform="matrix(1,0,0,1,1368,576)"
font-family="Noto Sans" font-size="10" font-weight="400" font-style="normal" 
>
<polyline fill="none" vector-effect="none" points="0,0 0,18 " />
</g>

<g fill="none" stroke="#000000" stroke-opacity="1" stroke-width="3" stroke-linecap="square" stroke-linejoin="bevel" transform="matrix(1,0,0,1,1368,576)"
font-family="Noto Sans" font-size="10" font-weight="400" font-style="normal" 
>
</g>

<g fill="none" stroke="#000000" stroke-opacity="1" stroke-width="3" stroke-linecap="square" stroke-linejoin="bevel" transform="matrix(1,0,0,1,1530,594)"
font-family="Noto Sans" font-size="10" font-weight="400" font-style="normal" 
>
<rect x="-72" y="0" width="144" height="72"/>
<text fill="#000000" fill-opacity="1" stroke="none" xml:space="preserve" x="-40.5" y="40" font-family="Noto Sans" font-size="10" font-weight="400" font-style="normal" 
 >Other HW failure</text>
<polyline fill="none" vector-effect="none" points="0,72 0,90 " />
<rect x="-45" y="90" width="90" height="18"/>
<text fill="#000000" fill-opacity="1" stroke="none" xml:space="preserve" x="-17" y="103" font-family="Noto Sans" font-size="10" font-weight="400" font-style="normal" 
 >System</text>
<polyline fill="none" vector-effect="none" points="0,108 0,117 " />
</g>

<g fill="none" stroke="#000000" stroke-opacity="1" stroke-width="3" stroke-linecap="square" stroke-linejoin="bevel" transform="matrix(1,0,0,1,1530,594)"
font-family="Noto Sans" font-size="10" font-weight="400" font-style="normal" 
>
</g>

<g fill="none" stroke="#000000" stroke-opacity="1" stroke-width="3" stroke-linecap="square" stroke-linejoin="bevel" transform="matrix(1,0,0,1,1530,711)"
font-family="Noto Sans" font-size="10" font-weight="400" font-style="normal" 
>
<circle cx="0" cy="36" r="36"/>
</g>

<g fill="none" stroke="#000000" stroke-opacity="1" stroke-width="3" stroke-linecap="square" stroke-linejoin="bevel" transform="matrix(1,0,0,1,1530,711)"
font-family="Noto Sans" font-size="10" font-weight="400" font-style="normal" 
>
</g>

<g fill="none" stroke="#000000" stroke-opacity="1" stroke-width="3" stroke-linecap="square" stroke-linejoin="bevel" transform="matrix(1,0,0,1,1530,576)"
font-family="Noto Sans" font-size="10" font-weight="400" font-style="normal" 
>
<polyline fill="none" vector-effect="none" points="0,0 0,18 " />
</g>

<g fill="none" stroke="#000000" stroke-opacity="1" stroke-width="3" stroke-linecap="square" stroke-linejoin="bevel" transform="matrix(1,0,0,1,1530,576)"
font-family="Noto Sans" font-size="10" font-weight="400" font-style="normal" 
>
</g>

<g fill="none" stroke="#000000" stroke-opacity="1" stroke-width="3" stroke-linecap="square" stroke-linejoin="bevel" transform="matrix(1,0,0,1,1692,594)"
font-family="Noto Sans" font-size="10" font-weight="400" font-style="normal" 
>
<rect x="-72" y="0" width="144" height="72"/>
<text fill="#000000" fill-opacity="1" stroke="none" xml:space="preserve" x="-43" y="40" font-family="Noto Sans" font-size="10" font-weight="400" font-style="normal" 
 >Network partition</text>
<polyline fill="none" vector-effect="none" points="0,72 0,90 " />
<rect x="-45" y="90" width="90" height="18"/>
<text fill="#000000" fill-opacity="1" stroke="none" xml:space="preserve" x="-20.5" y="103" font-family="Noto Sans" font-size="10" font-weight="400" font-style="normal" 
 >Network</text>
<polyline fill="none" vector-effect="none" points="0,108 0,117 " />
</g>

<g fill="none" stroke="#000000" stroke-opacity="1" stroke-width="3" stroke-linecap="square" stroke-linejoin="bevel" transform="matrix(1,0,0,1,1692,594)"
font-family="Noto Sans" font-size="10" font-weight="400" font-style="normal" 
>
</g>

<g fill="none" stroke="#000000" stroke-opacity="1" stroke-width="3" stroke-linecap="square" stroke-linejoin="bevel" transform="matrix(1,0,0,1,1692,711)"
font-family="Noto Sans" font-size="10" font-weight="400" font-style="normal" 
>
<circle cx="0" cy="36" r="36"/>
</g>

<g fill="none" stroke="#000000" stroke-opacity="1" stroke-width="3" stroke-linecap="square" stroke-linejoin="bevel" transform="matrix(1,0,0,1,1692,711)"
font-family="Noto Sans" font-size="10" font-weight="400" font-style="normal" 
>
</g>

<g fill="none" stroke="#000000" stroke-opacity="1" stroke-width="3" stroke-linecap="square" stroke-linejoin="bevel" transform="matrix(1,0,0,1,1692,576)"
font-family="Noto Sans" font-size="10" font-weight="400" font-style="normal" 
>
<polyline fill="none" vector-effect="none" points="0,0 0,18 " />
</g>

<g fill="none" stroke="#000000" stroke-opacity="1" stroke-width="3" stroke-linecap="square" stroke-linejoin="bevel" transform="matrix(1,0,0,1,1692,576)"
font-family="Noto Sans" font-size="10" font-weight="400" font-style="normal" 
>
</g>

<g fill="none" stroke="#000000" stroke-opacity="1" stroke-width="3" stroke-linecap="square" stroke-linejoin="bevel" transform="matrix(1,0,0,1,1854,594)"
font-family="Noto Sans" font-size="10" font-weight="400" font-style="normal" 
>
<rect x="-72" y="0" width="144" height="72"/>
<text fill="#000000" fill-opacity="1" stroke="none" xml:space="preserve" x="-22.5" y="40" font-family="Noto Sans" font-size="10" font-weight="400" font-style="normal" 
 >OS Faults</text>
<polyline fill="none" vector-effect="none" points="0,72 0,90 " />
<rect x="-45" y="90" width="90" height="18"/>
<text fill="#000000" fill-opacity="1" stroke="none" xml:space="preserve" x="-6.5" y="103" font-family="Noto Sans" font-size="10" font-weight="400" font-style="normal" 
 >OS</text>
<polyline fill="none" vector-effect="none" points="0,108 0,117 " />
</g>

<g fill="none" stroke="#000000" stroke-opacity="1" stroke-width="3" stroke-linecap="square" stroke-linejoin="bevel" transform="matrix(1,0,0,1,1854,594)"
font-family="Noto Sans" font-size="10" font-weight="400" font-style="normal" 
>
</g>

<g fill="none" stroke="#000000" stroke-opacity="1" stroke-width="3" stroke-linecap="square" stroke-linejoin="bevel" transform="matrix(1,0,0,1,1854,711)"
font-family="Noto Sans" font-size="10" font-weight="400" font-style="normal" 
>
<circle cx="0" cy="36" r="36"/>
</g>

<g fill="none" stroke="#000000" stroke-opacity="1" stroke-width="3" stroke-linecap="square" stroke-linejoin="bevel" transform="matrix(1,0,0,1,1854,711)"
font-family="Noto Sans" font-size="10" font-weight="400" font-style="normal" 
>
</g>

<g fill="none" stroke="#000000" stroke-opacity="1" stroke-width="3" stroke-linecap="square" stroke-linejoin="bevel" transform="matrix(1,0,0,1,1854,576)"
font-family="Noto Sans" font-size="10" font-weight="400" font-style="normal" 
>
<polyline fill="none" vector-effect="none" points="0,0 0,18 " />
</g>

<g fill="none" stroke="#000000" stroke-opacity="1" stroke-width="3" stroke-linecap="square" stroke-linejoin="bevel" transform="matrix(1,0,0,1,1854,576)"
font-family="Noto Sans" font-size="10" font-weight="400" font-style="normal" 
>
</g>

<g fill="none" stroke="#000000" stroke-opacity="1" stroke-width="3" stroke-linecap="square" stroke-linejoin="bevel" transform="matrix(1,0,0,1,1611,396)"
font-family="Noto Sans" font-size="10" font-weight="400" font-style="normal" 
>
<polyline fill="none" vector-effect="none" points="-243,180 243,180 " />
</g>

<g fill="none" stroke="#000000" stroke-opacity="1" stroke-width="3" stroke-linecap="square" stroke-linejoin="bevel" transform="matrix(1,0,0,1,1611,396)"
font-family="Noto Sans" font-size="10" font-weight="400" font-style="normal" 
>
</g>

<g fill="none" stroke="#000000" stroke-opacity="1" stroke-width="3" stroke-linecap="square" stroke-linejoin="bevel" transform="matrix(1,0,0,1,1611,378)"
font-family="Noto Sans" font-size="10" font-weight="400" font-style="normal" 
>
<polyline fill="none" vector-effect="none" points="0,0 0,18 " />
</g>

<g fill="none" stroke="#000000" stroke-opacity="1" stroke-width="3" stroke-linecap="square" stroke-linejoin="bevel" transform="matrix(1,0,0,1,1611,378)"
font-family="Noto Sans" font-size="10" font-weight="400" font-style="normal" 
>
</g>

<g fill="none" stroke="#000000" stroke-opacity="1" stroke-width="3" stroke-linecap="square" stroke-linejoin="bevel" transform="matrix(1,0,0,1,1287,198)"
font-family="Noto Sans" font-size="10" font-weight="400" font-style="normal" 
>
<polyline fill="none" vector-effect="none" points="-567,180 324,180 " />
</g>

<g fill="none" stroke="#000000" stroke-opacity="1" stroke-width="3" stroke-linecap="square" stroke-linejoin="bevel" transform="matrix(1,0,0,1,1287,198)"
font-family="Noto Sans" font-size="10" font-weight="400" font-style="normal" 
>
</g>

<g fill="none" stroke="#000000" stroke-opacity="1" stroke-width="3" stroke-linecap="square" stroke-linejoin="bevel" transform="matrix(1,0,0,1,1287,180)"
font-family="Noto Sans" font-size="10" font-weight="400" font-style="normal" 
>
<polyline fill="none" vector-effect="none" points="0,0 0,18 " />
</g>

<g fill="none" stroke="#000000" stroke-opacity="1" stroke-width="3" stroke-linecap="square" stroke-linejoin="bevel" transform="matrix(1,0,0,1,1287,180)"
font-family="Noto Sans" font-size="10" font-weight="400" font-style="normal" 
>
</g>

<g fill="none" stroke="#000000" stroke-opacity="1" stroke-width="3" stroke-linecap="square" stroke-linejoin="bevel" transform="matrix(1,0,0,1,2340,198)"
font-family="Noto Sans" font-size="10" font-weight="400" font-style="normal" 
>
<rect x="-72" y="0" width="144" height="72"/>
<text fill="#000000" fill-opacity="1" stroke="none" xml:space="preserve" x="-34" y="40" font-family="Noto Sans" font-size="10" font-weight="400" font-style="normal" 
 >Broker Failure</text>
<polyline fill="none" vector-effect="none" points="0,72 0,90 " />
<rect x="-45" y="90" width="90" height="18"/>
<text fill="#000000" fill-opacity="1" stroke="none" xml:space="preserve" x="-19" y="103" font-family="Noto Sans" font-size="10" font-weight="400" font-style="normal" 
 >Broker2</text>
<polyline fill="none" vector-effect="none" points="0,108 0,117 " />
</g>

<g fill="none" stroke="#000000" stroke-opacity="1" stroke-width="3" stroke-linecap="square" stroke-linejoin="bevel" transform="matrix(1,0,0,1,2340,198)"
font-family="Noto Sans" font-size="10" font-weight="400" font-style="normal" 
>
</g>

<g fill="none" stroke="#000000" stroke-opacity="1" stroke-width="3" stroke-linecap="square" stroke-linejoin="bevel" transform="matrix(1,0,0,1,2340,369)"
font-family="Noto Sans" font-size="10" font-weight="400" font-style="normal" 
>
<polyline fill="none" vector-effect="none" points="0,0 0,9 " />
</g>

<g fill="none" stroke="#000000" stroke-opacity="1" stroke-width="3" stroke-linecap="square" stroke-linejoin="bevel" transform="matrix(1,0,0,1,2340,369)"
font-family="Noto Sans" font-size="10" font-weight="400" font-style="normal" 
>
</g>

<g fill="none" stroke="#000000" stroke-opacity="1" stroke-width="3" stroke-linecap="square" stroke-linejoin="bevel" transform="matrix(1,0,0,1,2340,315)"
font-family="Noto Sans" font-size="10" font-weight="400" font-style="normal" 
>
<path vector-effect="none" fill-rule="evenodd" d="M27,54 C27,24.1766 14.9117,0 0,0 C-14.9117,0 -27,24.1766 -27,54 M27,54 C27,46.5442 14.9117,40.5 0,40.5 C-14.9117,40.5 -27,46.5442 -27,54 M0,40.5 L0,54"/>
</g>

<g fill="none" stroke="#000000" stroke-opacity="1" stroke-width="3" stroke-linecap="square" stroke-linejoin="bevel" transform="matrix(1,0,0,1,2340,315)"
font-family="Noto Sans" font-size="10" font-weight="400" font-style="normal" 
>
</g>

<g fill="none" stroke="#000000" stroke-opacity="1" stroke-width="3" stroke-linecap="square" stroke-linejoin="bevel" transform="matrix(1,0,0,1,2016,396)"
font-family="Noto Sans" font-size="10" font-weight="400" font-style="normal" 
>
<rect x="-72" y="0" width="144" height="72"/>
<text fill="#000000" fill-opacity="1" stroke="none" xml:space="preserve" x="-22.5" y="40" font-family="Noto Sans" font-size="10" font-weight="400" font-style="normal" 
 >Disk Fails</text>
<polyline fill="none" vector-effect="none" points="0,72 0,90 " />
<rect x="-45" y="90" width="90" height="18"/>
<text fill="#000000" fill-opacity="1" stroke="none" xml:space="preserve" x="-10" y="103" font-family="Noto Sans" font-size="10" font-weight="400" font-style="normal" 
 >Disk</text>
<polyline fill="none" vector-effect="none" points="0,108 0,117 " />
</g>

<g fill="none" stroke="#000000" stroke-opacity="1" stroke-width="3" stroke-linecap="square" stroke-linejoin="bevel" transform="matrix(1,0,0,1,2016,396)"
font-family="Noto Sans" font-size="10" font-weight="400" font-style="normal" 
>
</g>

<g fill="none" stroke="#000000" stroke-opacity="1" stroke-width="3" stroke-linecap="square" stroke-linejoin="bevel" transform="matrix(1,0,0,1,2016,513)"
font-family="Noto Sans" font-size="10" font-weight="400" font-style="normal" 
>
<circle cx="0" cy="36" r="36"/>
</g>

<g fill="none" stroke="#000000" stroke-opacity="1" stroke-width="3" stroke-linecap="square" stroke-linejoin="bevel" transform="matrix(1,0,0,1,2016,513)"
font-family="Noto Sans" font-size="10" font-weight="400" font-style="normal" 
>
</g>

<g fill="none" stroke="#000000" stroke-opacity="1" stroke-width="3" stroke-linecap="square" stroke-linejoin="bevel" transform="matrix(1,0,0,1,2016,378)"
font-family="Noto Sans" font-size="10" font-weight="400" font-style="normal" 
>
<polyline fill="none" vector-effect="none" points="0,0 0,18 " />
</g>

<g fill="none" stroke="#000000" stroke-opacity="1" stroke-width="3" stroke-linecap="square" stroke-linejoin="bevel" transform="matrix(1,0,0,1,2016,378)"
font-family="Noto Sans" font-size="10" font-weight="400" font-style="normal" 
>
</g>

<g fill="none" stroke="#000000" stroke-opacity="1" stroke-width="3" stroke-linecap="square" stroke-linejoin="bevel" transform="matrix(1,0,0,1,2178,396)"
font-family="Noto Sans" font-size="10" font-weight="400" font-style="normal" 
>
<rect x="-72" y="0" width="144" height="72"/>
<text fill="#000000" fill-opacity="1" stroke="none" xml:space="preserve" x="-40.5" y="40" font-family="Noto Sans" font-size="10" font-weight="400" font-style="normal" 
 >Other HW failure</text>
<polyline fill="none" vector-effect="none" points="0,72 0,90 " />
<rect x="-45" y="90" width="90" height="18"/>
<text fill="#000000" fill-opacity="1" stroke="none" xml:space="preserve" x="-17" y="103" font-family="Noto Sans" font-size="10" font-weight="400" font-style="normal" 
 >System</text>
<polyline fill="none" vector-effect="none" points="0,108 0,117 " />
</g>

<g fill="none" stroke="#000000" stroke-opacity="1" stroke-width="3" stroke-linecap="square" stroke-linejoin="bevel" transform="matrix(1,0,0,1,2178,396)"
font-family="Noto Sans" font-size="10" font-weight="400" font-style="normal" 
>
</g>

<g fill="none" stroke="#000000" stroke-opacity="1" stroke-width="3" stroke-linecap="square" stroke-linejoin="bevel" transform="matrix(1,0,0,1,2178,513)"
font-family="Noto Sans" font-size="10" font-weight="400" font-style="normal" 
>
<circle cx="0" cy="36" r="36"/>
</g>

<g fill="none" stroke="#000000" stroke-opacity="1" stroke-width="3" stroke-linecap="square" stroke-linejoin="bevel" transform="matrix(1,0,0,1,2178,513)"
font-family="Noto Sans" font-size="10" font-weight="400" font-style="normal" 
>
</g>

<g fill="none" stroke="#000000" stroke-opacity="1" stroke-width="3" stroke-linecap="square" stroke-linejoin="bevel" transform="matrix(1,0,0,1,2178,378)"
font-family="Noto Sans" font-size="10" font-weight="400" font-style="normal" 
>
<polyline fill="none" vector-effect="none" points="0,0 0,18 " />
</g>

<g fill="none" stroke="#000000" stroke-opacity="1" stroke-width="3" stroke-linecap="square" stroke-linejoin="bevel" transform="matrix(1,0,0,1,2178,378)"
font-family="Noto Sans" font-size="10" font-weight="400" font-style="normal" 
>
</g>

<g fill="none" stroke="#000000" stroke-opacity="1" stroke-width="3" stroke-linecap="square" stroke-linejoin="bevel" transform="matrix(1,0,0,1,2340,396)"
font-family="Noto Sans" font-size="10" font-weight="400" font-style="normal" 
>
<rect x="-72" y="0" width="144" height="72"/>
<text fill="#000000" fill-opacity="1" stroke="none" xml:space="preserve" x="-43" y="40" font-family="Noto Sans" font-size="10" font-weight="400" font-style="normal" 
 >Network partition</text>
<polyline fill="none" vector-effect="none" points="0,72 0,90 " />
<rect x="-45" y="90" width="90" height="18"/>
<text fill="#000000" fill-opacity="1" stroke="none" xml:space="preserve" x="-20.5" y="103" font-family="Noto Sans" font-size="10" font-weight="400" font-style="normal" 
 >Network</text>
<polyline fill="none" vector-effect="none" points="0,108 0,117 " />
</g>

<g fill="none" stroke="#000000" stroke-opacity="1" stroke-width="3" stroke-linecap="square" stroke-linejoin="bevel" transform="matrix(1,0,0,1,2340,396)"
font-family="Noto Sans" font-size="10" font-weight="400" font-style="normal" 
>
</g>

<g fill="none" stroke="#000000" stroke-opacity="1" stroke-width="3" stroke-linecap="square" stroke-linejoin="bevel" transform="matrix(1,0,0,1,2340,513)"
font-family="Noto Sans" font-size="10" font-weight="400" font-style="normal" 
>
<circle cx="0" cy="36" r="36"/>
</g>

<g fill="none" stroke="#000000" stroke-opacity="1" stroke-width="3" stroke-linecap="square" stroke-linejoin="bevel" transform="matrix(1,0,0,1,2340,513)"
font-family="Noto Sans" font-size="10" font-weight="400" font-style="normal" 
>
</g>

<g fill="none" stroke="#000000" stroke-opacity="1" stroke-width="3" stroke-linecap="square" stroke-linejoin="bevel" transform="matrix(1,0,0,1,2340,378)"
font-family="Noto Sans" font-size="10" font-weight="400" font-style="normal" 
>
<polyline fill="none" vector-effect="none" points="0,0 0,18 " />
</g>

<g fill="none" stroke="#000000" stroke-opacity="1" stroke-width="3" stroke-linecap="square" stroke-linejoin="bevel" transform="matrix(1,0,0,1,2340,378)"
font-family="Noto Sans" font-size="10" font-weight="400" font-style="normal" 
>
</g>

<g fill="none" stroke="#000000" stroke-opacity="1" stroke-width="3" stroke-linecap="square" stroke-linejoin="bevel" transform="matrix(1,0,0,1,2502,396)"
font-family="Noto Sans" font-size="10" font-weight="400" font-style="normal" 
>
<rect x="-72" y="0" width="144" height="72"/>
<text fill="#000000" fill-opacity="1" stroke="none" xml:space="preserve" x="-22.5" y="40" font-family="Noto Sans" font-size="10" font-weight="400" font-style="normal" 
 >OS Faults</text>
<polyline fill="none" vector-effect="none" points="0,72 0,90 " />
<rect x="-45" y="90" width="90" height="18"/>
<text fill="#000000" fill-opacity="1" stroke="none" xml:space="preserve" x="-6.5" y="103" font-family="Noto Sans" font-size="10" font-weight="400" font-style="normal" 
 >OS</text>
<polyline fill="none" vector-effect="none" points="0,108 0,117 " />
</g>

<g fill="none" stroke="#000000" stroke-opacity="1" stroke-width="3" stroke-linecap="square" stroke-linejoin="bevel" transform="matrix(1,0,0,1,2502,396)"
font-family="Noto Sans" font-size="10" font-weight="400" font-style="normal" 
>
</g>

<g fill="none" stroke="#000000" stroke-opacity="1" stroke-width="3" stroke-linecap="square" stroke-linejoin="bevel" transform="matrix(1,0,0,1,2502,513)"
font-family="Noto Sans" font-size="10" font-weight="400" font-style="normal" 
>
<circle cx="0" cy="36" r="36"/>
</g>

<g fill="none" stroke="#000000" stroke-opacity="1" stroke-width="3" stroke-linecap="square" stroke-linejoin="bevel" transform="matrix(1,0,0,1,2502,513)"
font-family="Noto Sans" font-size="10" font-weight="400" font-style="normal" 
>
</g>

<g fill="none" stroke="#000000" stroke-opacity="1" stroke-width="3" stroke-linecap="square" stroke-linejoin="bevel" transform="matrix(1,0,0,1,2502,378)"
font-family="Noto Sans" font-size="10" font-weight="400" font-style="normal" 
>
<polyline fill="none" vector-effect="none" points="0,0 0,18 " />
</g>

<g fill="none" stroke="#000000" stroke-opacity="1" stroke-width="3" stroke-linecap="square" stroke-linejoin="bevel" transform="matrix(1,0,0,1,2502,378)"
font-family="Noto Sans" font-size="10" font-weight="400" font-style="normal" 
>
</g>

<g fill="none" stroke="#000000" stroke-opacity="1" stroke-width="3" stroke-linecap="square" stroke-linejoin="bevel" transform="matrix(1,0,0,1,2664,396)"
font-family="Noto Sans" font-size="10" font-weight="400" font-style="normal" 
>
<rect x="-72" y="0" width="144" height="72"/>
<text fill="#000000" fill-opacity="1" stroke="none" xml:space="preserve" x="-42.5" y="40" font-family="Noto Sans" font-size="10" font-weight="400" font-style="normal" 
 >Zookeeper failure</text>
<polyline fill="none" vector-effect="none" points="0,72 0,90 " />
<rect x="-45" y="90" width="90" height="18"/>
<text fill="#000000" fill-opacity="1" stroke="none" xml:space="preserve" x="-9" y="103" font-family="Noto Sans" font-size="10" font-weight="400" font-style="normal" 
 >ZK1</text>
<polyline fill="none" vector-effect="none" points="0,108 0,117 " />
</g>

<g fill="none" stroke="#000000" stroke-opacity="1" stroke-width="3" stroke-linecap="square" stroke-linejoin="bevel" transform="matrix(1,0,0,1,2664,396)"
font-family="Noto Sans" font-size="10" font-weight="400" font-style="normal" 
>
</g>

<g fill="none" stroke="#000000" stroke-opacity="1" stroke-width="3" stroke-linecap="square" stroke-linejoin="bevel" transform="matrix(1,0,0,1,2664,513)"
font-family="Noto Sans" font-size="10" font-weight="400" font-style="normal" 
>
<path vector-effect="none" fill-rule="evenodd" d="M0,0 L-36,72 L36,72 L0,0"/>
</g>

<g fill="none" stroke="#000000" stroke-opacity="1" stroke-width="3" stroke-linecap="square" stroke-linejoin="bevel" transform="matrix(1,0,0,1,2664,513)"
font-family="Noto Sans" font-size="10" font-weight="400" font-style="normal" 
>
</g>

<g fill="none" stroke="#000000" stroke-opacity="1" stroke-width="3" stroke-linecap="square" stroke-linejoin="bevel" transform="matrix(1,0,0,1,2664,378)"
font-family="Noto Sans" font-size="10" font-weight="400" font-style="normal" 
>
<polyline fill="none" vector-effect="none" points="0,0 0,18 " />
</g>

<g fill="none" stroke="#000000" stroke-opacity="1" stroke-width="3" stroke-linecap="square" stroke-linejoin="bevel" transform="matrix(1,0,0,1,2664,378)"
font-family="Noto Sans" font-size="10" font-weight="400" font-style="normal" 
>
</g>

<g fill="none" stroke="#000000" stroke-opacity="1" stroke-width="3" stroke-linecap="square" stroke-linejoin="bevel" transform="matrix(1,0,0,1,2340,198)"
font-family="Noto Sans" font-size="10" font-weight="400" font-style="normal" 
>
<polyline fill="none" vector-effect="none" points="-324,180 324,180 " />
</g>

<g fill="none" stroke="#000000" stroke-opacity="1" stroke-width="3" stroke-linecap="square" stroke-linejoin="bevel" transform="matrix(1,0,0,1,2340,198)"
font-family="Noto Sans" font-size="10" font-weight="400" font-style="normal" 
>
</g>

<g fill="none" stroke="#000000" stroke-opacity="1" stroke-width="3" stroke-linecap="square" stroke-linejoin="bevel" transform="matrix(1,0,0,1,2340,180)"
font-family="Noto Sans" font-size="10" font-weight="400" font-style="normal" 
>
<polyline fill="none" vector-effect="none" points="0,0 0,18 " />
</g>

<g fill="none" stroke="#000000" stroke-opacity="1" stroke-width="3" stroke-linecap="square" stroke-linejoin="bevel" transform="matrix(1,0,0,1,2340,180)"
font-family="Noto Sans" font-size="10" font-weight="400" font-style="normal" 
>
</g>

<g fill="none" stroke="#000000" stroke-opacity="1" stroke-width="3" stroke-linecap="square" stroke-linejoin="bevel" transform="matrix(1,0,0,1,1692,0)"
font-family="Noto Sans" font-size="10" font-weight="400" font-style="normal" 
>
<polyline fill="none" vector-effect="none" points="-405,180 648,180 " />
</g>

<g fill="none" stroke="#000000" stroke-opacity="1" stroke-width="3" stroke-linecap="square" stroke-linejoin="bevel" transform="matrix(1,0,0,1,1692,0)"
font-family="Noto Sans" font-size="10" font-weight="400" font-style="normal" 
>
</g>

<g fill="none" stroke="#000000" stroke-opacity="1" stroke-width="3" stroke-linecap="square" stroke-linejoin="bevel" transform="matrix(1,0,0,1,0,0)"
font-family="Noto Sans" font-size="10" font-weight="400" font-style="normal" 
>
</g>
</g>
</svg>
