<?xml version="1.0" encoding="UTF-8" standalone="no"?>
<svg width="165.1mm" height="136.878mm"
 viewBox="0 0 468 388"
 xmlns="http://www.w3.org/2000/svg" xmlns:xlink="http://www.w3.org/1999/xlink"  version="1.2" baseProfile="tiny">
<title>/home/andrey/fta-kafka/raid0.svg</title>
<desc>Generated with Qt</desc>
<defs>
</defs>
<g fill="none" stroke="black" stroke-width="1" fill-rule="evenodd" stroke-linecap="square" stroke-linejoin="bevel" >

<g fill="none" stroke="#000000" stroke-opacity="1" stroke-width="1" stroke-linecap="square" stroke-linejoin="bevel" transform="matrix(1,0,0,1,0,0)"
font-family="Noto Sans" font-size="10" font-weight="400" font-style="normal" 
>
</g>

<g fill="none" stroke="#000000" stroke-opacity="1" stroke-width="1" stroke-linecap="square" stroke-linejoin="bevel" transform="matrix(1,0,0,1,234,0)"
font-family="Noto Sans" font-size="10" font-weight="400" font-style="normal" 
>
<rect x="-72" y="0" width="144" height="72"/>
<text fill="#000000" fill-opacity="1" stroke="none" xml:space="preserve" x="-30" y="40" font-family="Noto Sans" font-size="10" font-weight="400" font-style="normal" 
 >Write failure</text>
<polyline fill="none" vector-effect="none" points="0,72 0,90 " />
<rect x="-45" y="90" width="90" height="18"/>
<text fill="#000000" fill-opacity="1" stroke="none" xml:space="preserve" x="-14" y="103" font-family="Noto Sans" font-size="10" font-weight="400" font-style="normal" 
 >RAID0</text>
<polyline fill="none" vector-effect="none" points="0,108 0,117 " />
</g>

<g fill="none" stroke="#000000" stroke-opacity="1" stroke-width="1" stroke-linecap="square" stroke-linejoin="bevel" transform="matrix(1,0,0,1,234,0)"
font-family="Noto Sans" font-size="10" font-weight="400" font-style="normal" 
>
</g>

<g fill="none" stroke="#000000" stroke-opacity="1" stroke-width="1" stroke-linecap="square" stroke-linejoin="bevel" transform="matrix(1,0,0,1,234,171)"
font-family="Noto Sans" font-size="10" font-weight="400" font-style="normal" 
>
<polyline fill="none" vector-effect="none" points="0,0 0,9 " />
</g>

<g fill="none" stroke="#000000" stroke-opacity="1" stroke-width="1" stroke-linecap="square" stroke-linejoin="bevel" transform="matrix(1,0,0,1,234,171)"
font-family="Noto Sans" font-size="10" font-weight="400" font-style="normal" 
>
</g>

<g fill="none" stroke="#000000" stroke-opacity="1" stroke-width="1" stroke-linecap="square" stroke-linejoin="bevel" transform="matrix(1,0,0,1,234,117)"
font-family="Noto Sans" font-size="10" font-weight="400" font-style="normal" 
>
<path vector-effect="none" fill-rule="evenodd" d="M27,54 C27,24.1766 14.9117,0 0,0 C-14.9117,0 -27,24.1766 -27,54 M27,54 C27,46.5442 14.9117,40.5 0,40.5 C-14.9117,40.5 -27,46.5442 -27,54 M0,40.5 L0,54"/>
</g>

<g fill="none" stroke="#000000" stroke-opacity="1" stroke-width="1" stroke-linecap="square" stroke-linejoin="bevel" transform="matrix(1,0,0,1,234,117)"
font-family="Noto Sans" font-size="10" font-weight="400" font-style="normal" 
>
</g>

<g fill="none" stroke="#000000" stroke-opacity="1" stroke-width="1" stroke-linecap="square" stroke-linejoin="bevel" transform="matrix(1,0,0,1,72,198)"
font-family="Noto Sans" font-size="10" font-weight="400" font-style="normal" 
>
<rect x="-72" y="0" width="144" height="72"/>
<text fill="#000000" fill-opacity="1" stroke="none" xml:space="preserve" x="-27" y="40" font-family="Noto Sans" font-size="10" font-weight="400" font-style="normal" 
 >Disk failure</text>
<polyline fill="none" vector-effect="none" points="0,72 0,90 " />
<rect x="-45" y="90" width="90" height="18"/>
<text fill="#000000" fill-opacity="1" stroke="none" xml:space="preserve" x="-13" y="103" font-family="Noto Sans" font-size="10" font-weight="400" font-style="normal" 
 >Disk1</text>
<polyline fill="none" vector-effect="none" points="0,108 0,117 " />
</g>

<g fill="none" stroke="#000000" stroke-opacity="1" stroke-width="1" stroke-linecap="square" stroke-linejoin="bevel" transform="matrix(1,0,0,1,72,198)"
font-family="Noto Sans" font-size="10" font-weight="400" font-style="normal" 
>
</g>

<g fill="none" stroke="#000000" stroke-opacity="1" stroke-width="1" stroke-linecap="square" stroke-linejoin="bevel" transform="matrix(1,0,0,1,72,315)"
font-family="Noto Sans" font-size="10" font-weight="400" font-style="normal" 
>
<circle cx="0" cy="36" r="36"/>
</g>

<g fill="none" stroke="#000000" stroke-opacity="1" stroke-width="1" stroke-linecap="square" stroke-linejoin="bevel" transform="matrix(1,0,0,1,72,315)"
font-family="Noto Sans" font-size="10" font-weight="400" font-style="normal" 
>
</g>

<g fill="none" stroke="#000000" stroke-opacity="1" stroke-width="1" stroke-linecap="square" stroke-linejoin="bevel" transform="matrix(1,0,0,1,72,180)"
font-family="Noto Sans" font-size="10" font-weight="400" font-style="normal" 
>
<polyline fill="none" vector-effect="none" points="0,0 0,18 " />
</g>

<g fill="none" stroke="#000000" stroke-opacity="1" stroke-width="1" stroke-linecap="square" stroke-linejoin="bevel" transform="matrix(1,0,0,1,72,180)"
font-family="Noto Sans" font-size="10" font-weight="400" font-style="normal" 
>
</g>

<g fill="none" stroke="#000000" stroke-opacity="1" stroke-width="1" stroke-linecap="square" stroke-linejoin="bevel" transform="matrix(1,0,0,1,234,198)"
font-family="Noto Sans" font-size="10" font-weight="400" font-style="normal" 
>
<rect x="-72" y="0" width="144" height="72"/>
<text fill="#000000" fill-opacity="1" stroke="none" xml:space="preserve" x="-27" y="40" font-family="Noto Sans" font-size="10" font-weight="400" font-style="normal" 
 >Disk failure</text>
<polyline fill="none" vector-effect="none" points="0,72 0,90 " />
<rect x="-45" y="90" width="90" height="18"/>
<text fill="#000000" fill-opacity="1" stroke="none" xml:space="preserve" x="-13" y="103" font-family="Noto Sans" font-size="10" font-weight="400" font-style="normal" 
 >Disk2</text>
<polyline fill="none" vector-effect="none" points="0,108 0,117 " />
</g>

<g fill="none" stroke="#000000" stroke-opacity="1" stroke-width="1" stroke-linecap="square" stroke-linejoin="bevel" transform="matrix(1,0,0,1,234,198)"
font-family="Noto Sans" font-size="10" font-weight="400" font-style="normal" 
>
</g>

<g fill="none" stroke="#000000" stroke-opacity="1" stroke-width="1" stroke-linecap="square" stroke-linejoin="bevel" transform="matrix(1,0,0,1,234,315)"
font-family="Noto Sans" font-size="10" font-weight="400" font-style="normal" 
>
<circle cx="0" cy="36" r="36"/>
</g>

<g fill="none" stroke="#000000" stroke-opacity="1" stroke-width="1" stroke-linecap="square" stroke-linejoin="bevel" transform="matrix(1,0,0,1,234,315)"
font-family="Noto Sans" font-size="10" font-weight="400" font-style="normal" 
>
</g>

<g fill="none" stroke="#000000" stroke-opacity="1" stroke-width="1" stroke-linecap="square" stroke-linejoin="bevel" transform="matrix(1,0,0,1,234,180)"
font-family="Noto Sans" font-size="10" font-weight="400" font-style="normal" 
>
<polyline fill="none" vector-effect="none" points="0,0 0,18 " />
</g>

<g fill="none" stroke="#000000" stroke-opacity="1" stroke-width="1" stroke-linecap="square" stroke-linejoin="bevel" transform="matrix(1,0,0,1,234,180)"
font-family="Noto Sans" font-size="10" font-weight="400" font-style="normal" 
>
</g>

<g fill="none" stroke="#000000" stroke-opacity="1" stroke-width="1" stroke-linecap="square" stroke-linejoin="bevel" transform="matrix(1,0,0,1,396,198)"
font-family="Noto Sans" font-size="10" font-weight="400" font-style="normal" 
>
<rect x="-72" y="0" width="144" height="72"/>
<text fill="#000000" fill-opacity="1" stroke="none" xml:space="preserve" x="-27" y="40" font-family="Noto Sans" font-size="10" font-weight="400" font-style="normal" 
 >Disk failure</text>
<polyline fill="none" vector-effect="none" points="0,72 0,90 " />
<rect x="-45" y="90" width="90" height="18"/>
<text fill="#000000" fill-opacity="1" stroke="none" xml:space="preserve" x="-13" y="103" font-family="Noto Sans" font-size="10" font-weight="400" font-style="normal" 
 >Disk3</text>
<polyline fill="none" vector-effect="none" points="0,108 0,117 " />
</g>

<g fill="none" stroke="#000000" stroke-opacity="1" stroke-width="1" stroke-linecap="square" stroke-linejoin="bevel" transform="matrix(1,0,0,1,396,198)"
font-family="Noto Sans" font-size="10" font-weight="400" font-style="normal" 
>
</g>

<g fill="none" stroke="#000000" stroke-opacity="1" stroke-width="1" stroke-linecap="square" stroke-linejoin="bevel" transform="matrix(1,0,0,1,396,315)"
font-family="Noto Sans" font-size="10" font-weight="400" font-style="normal" 
>
<circle cx="0" cy="36" r="36"/>
</g>

<g fill="none" stroke="#000000" stroke-opacity="1" stroke-width="1" stroke-linecap="square" stroke-linejoin="bevel" transform="matrix(1,0,0,1,396,315)"
font-family="Noto Sans" font-size="10" font-weight="400" font-style="normal" 
>
</g>

<g fill="none" stroke="#000000" stroke-opacity="1" stroke-width="1" stroke-linecap="square" stroke-linejoin="bevel" transform="matrix(1,0,0,1,396,180)"
font-family="Noto Sans" font-size="10" font-weight="400" font-style="normal" 
>
<polyline fill="none" vector-effect="none" points="0,0 0,18 " />
</g>

<g fill="none" stroke="#000000" stroke-opacity="1" stroke-width="1" stroke-linecap="square" stroke-linejoin="bevel" transform="matrix(1,0,0,1,396,180)"
font-family="Noto Sans" font-size="10" font-weight="400" font-style="normal" 
>
</g>

<g fill="none" stroke="#000000" stroke-opacity="1" stroke-width="1" stroke-linecap="square" stroke-linejoin="bevel" transform="matrix(1,0,0,1,234,0)"
font-family="Noto Sans" font-size="10" font-weight="400" font-style="normal" 
>
<polyline fill="none" vector-effect="none" points="-162,180 162,180 " />
</g>

<g fill="none" stroke="#000000" stroke-opacity="1" stroke-width="1" stroke-linecap="square" stroke-linejoin="bevel" transform="matrix(1,0,0,1,234,0)"
font-family="Noto Sans" font-size="10" font-weight="400" font-style="normal" 
>
</g>

<g fill="none" stroke="#000000" stroke-opacity="1" stroke-width="1" stroke-linecap="square" stroke-linejoin="bevel" transform="matrix(1,0,0,1,0,0)"
font-family="Noto Sans" font-size="10" font-weight="400" font-style="normal" 
>
</g>
</g>
</svg>
